<svg xmlns="http://www.w3.org/2000/svg" width="500" height="500" viewBox="0 0 500 500"><rect width="100%" height="100%" fill="#DDDDDD"/><path fill="#999999" d="M167.225 274.035q1.34 0 2.37 1.04l6.47 7.01q-5.37 6.65-13.21 10.19-7.83 3.54-18.81 3.54-9.83 0-17.66-3.36-7.84-3.35-13.39-9.33t-8.51-14.28q-2.96-8.29-2.96-18.11 0-9.95 3.17-18.21 3.17-8.27 8.94-14.24 5.76-5.98 13.75-9.31 7.99-3.32 17.69-3.32 9.64 0 17.11 3.17 7.48 3.17 12.72 8.3l-5.49 7.62q-.49.73-1.25 1.28t-2.1.55q-.92 0-1.89-.52-.98-.52-2.14-1.28t-2.68-1.68q-1.53-.91-3.54-1.67-2.01-.77-4.67-1.28-2.65-.52-6.13-.52-5.92 0-10.83 2.1-4.91 2.11-8.44 6.1-3.54 4-5.49 9.76-1.96 5.77-1.96 13.15 0 7.44 2.11 13.23 2.1 5.8 5.7 9.76 3.6 3.97 8.48 6.07 4.88 2.11 10.49 2.11 3.36 0 6.07-.37 2.72-.36 5-1.16 2.29-.79 4.34-2.04 2.04-1.25 4.05-3.08.61-.55 1.28-.89.67-.33 1.41-.33m32.81-69.85v34.77q3.66-3.41 8.06-5.55 4.39-2.13 10.3-2.13 5.13 0 9.09 1.74 3.97 1.73 6.62 4.88 2.66 3.14 4.03 7.5t1.37 9.61v39.83h-15.07v-39.83q0-5.74-2.62-8.88t-7.99-3.14q-3.9 0-7.32 1.77t-6.47 4.82v45.26h-15.06v-90.65zm86.81 74.49v-10.56q-6.53.31-10.98 1.13-4.46.82-7.14 2.11-2.68 1.28-3.84 2.98-1.16 1.71-1.16 3.73 0 3.96 2.35 5.67 2.34 1.71 6.13 1.71 4.63 0 8.02-1.68 3.38-1.68 6.62-5.09m-31.85-32.88-2.68-4.82q10.8-9.88 25.99-9.88 5.49 0 9.82 1.79 4.33 1.8 7.32 5.01 2.99 3.2 4.54 7.65 1.56 4.45 1.56 9.76v39.53h-6.83q-2.14 0-3.3-.64t-1.83-2.59l-1.34-4.52q-2.38 2.14-4.64 3.75-2.25 1.62-4.69 2.72t-5.22 1.68q-2.77.58-6.13.58-3.96 0-7.32-1.07-3.35-1.07-5.79-3.2-2.44-2.14-3.79-5.31-1.34-3.17-1.34-7.38 0-2.38.79-4.73.8-2.35 2.6-4.48 1.8-2.14 4.66-4.03 2.87-1.89 7.05-3.29 4.18-1.41 9.73-2.29 5.55-.89 12.69-1.07v-3.66q0-6.28-2.69-9.3-2.68-3.02-7.74-3.02-3.66 0-6.07.85-2.41.86-4.24 1.93-1.83 1.06-3.33 1.92-1.49.85-3.32.85-1.59 0-2.69-.82-1.09-.83-1.77-1.92m74-9.76.91 7.07q2.93-5.61 6.96-8.81 4.02-3.2 9.51-3.2 4.33 0 6.96 1.89l-.98 11.28q-.3 1.1-.88 1.56-.58.45-1.56.45-.91 0-2.71-.3-1.8-.31-3.51-.31-2.5 0-4.45.74-1.96.73-3.51 2.1-1.56 1.37-2.75 3.32-1.19 1.96-2.22 4.46v38.55h-15.07v-62.59h8.84q2.32 0 3.24.83.91.82 1.22 2.96m53.07 59.78q-8.18 0-12.54-4.61-4.36-4.6-4.36-12.72v-34.95h-6.4q-1.22 0-2.08-.79-.85-.8-.85-2.38v-5.98l10.06-1.65 3.17-17.08q.31-1.22 1.16-1.89.86-.67 2.2-.67h7.81v19.7h16.71v10.74h-16.71v33.92q0 2.92 1.43 4.57t3.94 1.65q1.4 0 2.34-.34.95-.33 1.65-.7t1.25-.7q.55-.34 1.1-.34.67 0 1.1.34.42.33.91 1.01l4.52 7.31q-3.3 2.75-7.57 4.15-4.27 1.41-8.84 1.41"/></svg>